<?xml version="1.0" encoding="utf-8"?>
<!-- Generator: Adobe Illustrator 16.0.0, SVG Export Plug-In . SVG Version: 6.00 Build 0)  -->
<!DOCTYPE svg PUBLIC "-//W3C//DTD SVG 1.1//EN" "http://www.w3.org/Graphics/SVG/1.1/DTD/svg11.dtd">
<svg version="1.1" id="Layer_1" xmlns="http://www.w3.org/2000/svg" xmlns:xlink="http://www.w3.org/1999/xlink" x="0px" y="0px"
	 width="700px" height="100px" viewBox="0 0 700 100" enable-background="new 0 0 700 100" xml:space="preserve">
<g>
	<path d="M9.114,81.693V18.307h15.942c4.154,0,7.601,0.37,10.341,1.108c2.74,0.739,4.925,1.95,6.557,3.632
		c1.631,1.683,2.778,3.741,3.441,6.175c0.662,2.434,0.994,5.486,0.994,9.156V61.24c0,3.696-0.338,6.785-1.013,9.271
		c-0.676,2.485-1.823,4.588-3.441,6.309c-1.619,1.72-3.785,2.963-6.5,3.728s-6.111,1.146-10.188,1.146H9.114z M23.107,71.982h2.141
		c1.071,0,1.981-0.069,2.734-0.21c0.751-0.14,1.376-0.389,1.873-0.745s0.892-0.732,1.185-1.128c0.293-0.395,0.509-0.968,0.65-1.721
		c0.14-0.751,0.229-1.465,0.268-2.141c0.039-0.676,0.058-1.587,0.058-2.733V36.046c0-1.605-0.064-2.842-0.191-3.709
		c-0.127-0.866-0.42-1.655-0.879-2.37c-0.459-0.713-1.141-1.204-2.045-1.472c-0.906-0.268-2.135-0.401-3.689-0.401h-2.103V71.982z"
		/>
	<path d="M54.838,81.693V18.307h17.28c2.676,0,5.046,0.153,7.111,0.459s4.001,0.841,5.812,1.605c1.809,0.765,3.3,1.771,4.473,3.021
		c1.172,1.249,2.09,2.854,2.753,4.816c0.662,1.963,0.994,4.257,0.994,6.882c0,4.155-0.561,7.493-1.682,10.017
		c-1.122,2.523-3.148,4.486-6.079,5.888l8.717,30.699h-14.49l-6.958-28.367h-3.938v28.367H54.838z M68.831,45.26h3.594
		c2.854,0,4.867-0.739,6.041-2.218c1.172-1.478,1.758-3.708,1.758-6.69c0-2.931-0.529-5.104-1.586-6.519
		c-1.059-1.414-2.887-2.122-5.486-2.122h-4.32V45.26z"/>
	<path d="M98.613,81.693l12.004-63.387h15.828l11.928,63.387h-12.922l-2.179-13.457h-9.251l-2.141,13.457H98.613z M115.243,59.863
		h6.767l-3.403-24.544L115.243,59.863z"/>
	<path d="M149.078,81.693l-7.646-63.387h11.89l3.747,36.816l4.855-36.816h9.251l5.085,36.625l3.823-36.625h11.737l-7.685,63.387
		h-12.157l-5.391-38.23l-5.2,38.23H149.078z"/>
	<path d="M226.801,81.693V55.772L214.72,18.307h13.189l6.041,20.071l5.467-20.071h12.731L240.22,55.772v25.921H226.801z"/>
	<path d="M275.622,82.572c-3.517,0-6.518-0.466-9.003-1.395c-2.485-0.93-4.461-2.319-5.926-4.168
		c-1.466-1.847-2.523-4.02-3.173-6.518c-0.65-2.497-0.975-5.441-0.975-8.832V38.263c0-3.414,0.325-6.365,0.975-8.85
		c0.65-2.485,1.707-4.646,3.173-6.48c1.465-1.835,3.44-3.212,5.926-4.129c2.485-0.918,5.486-1.376,9.003-1.376
		c6.855,0,11.768,1.752,14.738,5.256c2.969,3.505,4.454,8.698,4.454,15.579V61.66c0,6.882-1.485,12.088-4.454,15.617
		C287.39,80.808,282.477,82.572,275.622,82.572z M273.462,72.212c0.599,0.306,1.319,0.459,2.16,0.459
		c0.841,0,1.568-0.146,2.179-0.439c0.612-0.293,1.083-0.662,1.415-1.108c0.331-0.446,0.593-1.025,0.784-1.74
		c0.191-0.713,0.312-1.382,0.363-2.007c0.05-0.624,0.077-1.369,0.077-2.236V34.746c0-0.842-0.026-1.574-0.077-2.198
		c-0.051-0.625-0.172-1.287-0.363-1.988c-0.191-0.701-0.453-1.268-0.784-1.701c-0.332-0.433-0.803-0.797-1.415-1.09
		c-0.611-0.293-1.338-0.439-2.179-0.439c-0.841,0-1.561,0.146-2.16,0.439c-0.6,0.293-1.064,0.65-1.396,1.07
		c-0.332,0.421-0.586,0.994-0.765,1.721c-0.179,0.727-0.287,1.384-0.325,1.969c-0.038,0.587-0.057,1.326-0.057,2.218V65.14
		c0,0.893,0.019,1.638,0.057,2.236c0.039,0.6,0.146,1.262,0.325,1.988c0.178,0.726,0.433,1.307,0.765,1.739
		C272.397,71.537,272.862,71.906,273.462,72.212z"/>
	<path d="M321.537,82.572c-2.88,0-5.397-0.3-7.551-0.898c-2.154-0.599-3.938-1.445-5.352-2.542
		c-1.415-1.096-2.562-2.516-3.441-4.263c-0.879-1.745-1.498-3.67-1.854-5.772c-0.357-2.104-0.535-4.556-0.535-7.359V18.307h13.839
		v45.495c0,0.993,0.025,1.842,0.077,2.542c0.05,0.701,0.172,1.46,0.363,2.274c0.191,0.816,0.452,1.485,0.784,2.008
		c0.331,0.522,0.809,0.955,1.434,1.3c0.624,0.344,1.369,0.516,2.236,0.516c0.866,0,1.605-0.172,2.217-0.516
		c0.612-0.345,1.083-0.777,1.415-1.3c0.331-0.522,0.593-1.191,0.784-2.008c0.191-0.814,0.312-1.579,0.363-2.294
		c0.05-0.713,0.077-1.554,0.077-2.522V18.307h13.878v43.431c0,3.517-0.3,6.512-0.898,8.983c-0.6,2.474-1.6,4.626-3.001,6.462
		c-1.402,1.835-3.326,3.191-5.773,4.071C328.151,82.133,325.131,82.572,321.537,82.572z"/>
	<path d="M349.178,81.693V18.307h17.28c2.677,0,5.047,0.153,7.111,0.459s4,0.841,5.812,1.605c1.809,0.765,3.3,1.771,4.473,3.021
		c1.171,1.249,2.089,2.854,2.753,4.816c0.662,1.963,0.993,4.257,0.993,6.882c0,4.155-0.561,7.493-1.682,10.017
		c-1.123,2.523-3.149,4.486-6.079,5.888l8.717,30.699h-14.489l-6.958-28.367h-3.938v28.367H349.178z M363.171,45.26h3.594
		c2.853,0,4.867-0.739,6.04-2.218c1.171-1.478,1.759-3.708,1.759-6.69c0-2.931-0.529-5.104-1.588-6.519
		c-1.058-1.414-2.886-2.122-5.485-2.122h-4.319V45.26z"/>
	<path d="M416.197,81.693V18.307h13.992v63.387H416.197z"/>
	<path d="M439.594,81.693V18.307h15.942c4.153,0,7.602,0.37,10.341,1.108c2.74,0.739,4.926,1.95,6.558,3.632
		c1.63,1.683,2.776,3.741,3.44,6.175c0.662,2.434,0.994,5.486,0.994,9.156V61.24c0,3.696-0.338,6.785-1.014,9.271
		c-0.677,2.485-1.823,4.588-3.441,6.309c-1.617,1.72-3.784,2.963-6.499,3.728c-2.714,0.765-6.111,1.146-10.188,1.146H439.594z
		 M453.587,71.982h2.141c1.07,0,1.981-0.069,2.732-0.21c0.753-0.14,1.376-0.389,1.873-0.745s0.893-0.732,1.186-1.128
		c0.294-0.395,0.51-0.968,0.649-1.721c0.142-0.751,0.229-1.465,0.269-2.141c0.038-0.676,0.058-1.587,0.058-2.733V36.046
		c0-1.605-0.064-2.842-0.19-3.709c-0.129-0.866-0.421-1.655-0.88-2.37c-0.459-0.713-1.141-1.204-2.046-1.472
		s-2.135-0.401-3.688-0.401h-2.103V71.982z"/>
	<path d="M485.318,81.693V18.307h28.482v9.558h-14.49v15.675h11.049v9.749h-11.049v18.924h14.643v9.481H485.318z"/>
	<path d="M520.3,81.693V18.307h9.863L543.2,48.738V18.307h11.622v63.387h-9.481l-13.075-32.802v32.802H520.3z"/>
	<path d="M569.961,81.693V28.667h-9.748v-10.36h33.413v10.36h-9.634v53.026H569.961z"/>
	<path d="M599.17,81.693V18.307h13.992v63.387H599.17z"/>
	<path d="M628.416,81.693V28.667h-9.748v-10.36h33.413v10.36h-9.634v53.026H628.416z"/>
	<path d="M665.539,81.693V55.772l-12.081-37.466h13.189l6.04,20.071l5.468-20.071h12.73l-11.928,37.466v25.921H665.539z"/>
</g>
</svg>
