<?xml version="1.0" encoding="utf-8"?>
<!-- Generator: Adobe Illustrator 16.0.0, SVG Export Plug-In . SVG Version: 6.00 Build 0)  -->
<!DOCTYPE svg PUBLIC "-//W3C//DTD SVG 1.1//EN" "http://www.w3.org/Graphics/SVG/1.1/DTD/svg11.dtd">
<svg version="1.1" id="Layer_1" xmlns="http://www.w3.org/2000/svg" xmlns:xlink="http://www.w3.org/1999/xlink" x="0px" y="0px"
	 width="458.299px" height="206.069px" viewBox="0 0 458.299 206.069" enable-background="new 0 0 458.299 206.069"
	 xml:space="preserve">
<g>
	<path d="M208.299,141.093h15.463v5.987h-42.075V54.292h-16.708v-6.136c14.223-0.411,28.488-0.823,43.049-1.244
		c0.278,2.695,0.11,5.226,0.139,7.741c0.03,2.479-0.033,4.96,0.018,7.438c0.052,2.515-0.237,5.047,0.263,8.033
		c0.637-1.061,1.065-1.699,1.421-2.376c6.248-11.851,16.298-18.37,29.268-20.577c6.288-1.07,12.623-0.736,18.79,0.959
		c10.048,2.762,15.368,9.744,17.242,19.729c0.978,5.216,1.16,10.479,1.162,15.759c0.006,18.076,0.003,36.152,0.003,54.229v3.275
		h15.942v5.998h-42.066c0-0.955,0-1.884,0-2.812c-0.001-20.956,0.032-41.912-0.029-62.867c-0.016-5.109-0.106-10.246-1.359-15.247
		c-0.425-1.694-1.025-3.369-1.755-4.956c-2.042-4.449-5.289-6.607-11.125-5.938c-2.327,0.266-4.708,1.063-6.808,2.127
		c-8.52,4.316-14.388,11-17.309,20.178c-1.853,5.82-2.786,11.812-3.386,17.861c-1.069,10.766-0.948,21.555-0.501,32.349
		c0.146,3.515,0.137,7.037,0.211,10.555C208.167,139.158,208.234,139.945,208.299,141.093"/>
	<path d="M105.529,98.931c0.263,24.685-17.839,46.097-42.728,50.719c-14.51,2.695-28.1,0.041-40.084-8.698
		c-10.138-7.393-17.663-16.989-20.94-29.306C-2.226,96.6,0.603,82.671,9.566,69.96c8.679-12.303,20.323-19.848,35.262-22.299
		c25.918-4.254,54.531,12.603,59.818,42.215C105.177,92.853,105.246,95.911,105.529,98.931 M75.75,99.372
		c0.313-8.398,0.194-16.791-0.735-25.15c-0.487-4.374-1.141-8.725-2.932-12.799c-2.025-4.608-5.406-7.596-10.384-8.775
		c-4.248-1.006-8.514-1.291-12.855-0.939c-9.158,0.742-15.451,6.078-17.546,15.06c-1.114,4.774-1.227,9.658-1.326,14.534
		c-0.069,3.359,0.001,6.725-0.211,10.074c-0.683,10.8-0.524,21.575,0.699,32.326c0.461,4.051,1.122,8.064,2.644,11.896
		c1.912,4.808,5.362,7.862,10.306,9.232c4.198,1.162,8.458,1.508,12.821,1.114c9.773-0.88,15.881-5.949,17.856-15.5
		c0.821-3.967,1.161-8.068,1.34-12.126C75.704,112.011,75.658,105.688,75.75,99.372"/>
	<path d="M356.105,54.132h-11.999v-5.546c1.902-0.497,54.337-0.592,57.017-0.103v5.685c-5.165,0.117-10.323-0.017-15.488,0.074
		c0.245,1.831,25.723,57.968,27.536,60.68c0.27-0.569,0.514-1.012,0.696-1.479c7.513-19.2,15.027-38.399,22.499-57.614
		c0.394-1.012,0.498-2.163,0.577-3.26c0.096-1.338,0.023-2.686,0.023-4.375c7.221-0.021,14.201-0.01,21.332-0.01v5.94h-13.757
		c-0.45,1.015-0.867,1.856-1.209,2.729c-14.795,37.804-29.578,75.61-44.374,113.413c-2.947,7.532-6.232,14.899-10.881,21.575
		c-2.474,3.554-5.113,6.963-8.506,9.715c-2.977,2.416-6.253,4.198-10.149,4.473c-5.539,0.39-9.888-2.137-12.948-6.404
		c-2.934-4.09-2.605-8.819-0.551-13.267c1.987-4.307,7.44-6.698,12.394-5.739c3.983,0.77,7.304,2.697,10.03,5.703
		c0.786,0.867,1.712,1.607,2.808,2.623c0.989-1.004,1.93-1.744,2.592-2.683c1.059-1.496,2.03-3.071,2.864-4.702
		c5.441-10.629,9.618-21.771,13.394-33.077c0.388-1.158-0.01-2.013-0.454-2.948c-3.669-7.725-7.339-15.45-11.005-23.177
		c-10.413-21.953-20.824-43.908-31.24-65.86C356.966,55.782,356.589,55.082,356.105,54.132"/>
	<path d="M27.109,25.896c-7.704-0.053-13.087-5.393-13-12.896c0.088-7.581,5.724-13.047,13.323-13
		c9.236,0.058,12.737,7.231,12.786,13.203C40.266,18.97,36.395,26.334,27.109,25.896"/>
	<path d="M78.039,25.897c-6.115-0.027-10.197-2.74-12.252-8.146c-1.922-5.055-0.347-11.269,3.761-14.873
		c2.211-1.94,4.885-2.721,7.722-2.819c6.696-0.233,10.506,2.328,12.819,7.94c2.226,5.402,0.594,11.979-3.733,15.463
		C84.239,25.165,81.682,25.913,78.039,25.897"/>
</g>
</svg>
